<svg xmlns="http://www.w3.org/2000/svg" version="1.1" xmlns:xlink="http://www.w3.org/1999/xlink" xmlns:svgjs="http://svgjs.dev/svgjs" width="2000" height="1247" viewBox="0 0 2000 1247"><g transform="matrix(1,0,0,1,-1.2121212121212466,0.504858299595071)"><svg viewBox="0 0 396 247" data-background-color="#ffffff" preserveAspectRatio="xMidYMid meet" height="1247" width="2000" xmlns="http://www.w3.org/2000/svg" xmlns:xlink="http://www.w3.org/1999/xlink"><g id="tight-bounds" transform="matrix(1,0,0,1,0.2400000000000091,-0.09999999999999432)"><svg viewBox="0 0 395.52 247.2" height="247.2" width="395.52"><g><svg></svg></g><g><svg viewBox="0 0 395.52 247.2" height="247.2" width="395.52"><g transform="matrix(1,0,0,1,75.54432,99.95205851584095)"><svg viewBox="0 0 244.43135999999998 47.29588296831809" height="47.29588296831809" width="244.43135999999998"><g><svg viewBox="0 0 244.43135999999998 47.29588296831809" height="47.29588296831809" width="244.43135999999998"><g><svg viewBox="0 0 244.43135999999998 47.29588296831809" height="47.29588296831809" width="244.43135999999998"><g><svg viewBox="0 0 244.43135999999998 47.29588296831809" height="47.29588296831809" width="244.43135999999998"><g id="textblocktransform"><svg viewBox="0 0 244.43135999999998 47.29588296831809" height="47.29588296831809" width="244.43135999999998" id="textblock"><g><svg viewBox="0 0 244.43135999999998 47.29588296831809" height="47.29588296831809" width="244.43135999999998"><g transform="matrix(1,0,0,1,0,0)"><svg width="244.43135999999998" viewBox="4.65 -35.5 235.13 45.5" height="47.29588296831809" data-palette-color="#61777f"><path d="M25.85 0L13.1-21.3 8.9-29.05 8.75-29.05 8.75 0 4.65 0 4.65-34.9 9.5-34.9 22.25-13.6 26.45-5.85 26.6-5.85 26.6-34.9 30.7-34.9 30.7 0 25.85 0ZM49.3 0.6L49.3 0.6Q46.65 0.6 44.52-0.35 42.4-1.3 40.87-3.08 39.35-4.85 38.52-7.33 37.7-9.8 37.7-12.9L37.7-12.9Q37.7-15.95 38.52-18.45 39.35-20.95 40.87-22.73 42.4-24.5 44.52-25.45 46.65-26.4 49.3-26.4L49.3-26.4Q51.9-26.4 53.95-25.45 56-24.5 57.45-22.83 58.9-21.15 59.67-18.85 60.45-16.55 60.45-13.8L60.45-13.8 60.45-11.9 41.9-11.9 41.9-10.7Q41.9-9.05 42.42-7.63 42.95-6.2 43.92-5.15 44.9-4.1 46.32-3.5 47.75-2.9 49.55-2.9L49.55-2.9Q52-2.9 53.82-4.05 55.65-5.2 56.65-7.35L56.65-7.35 59.5-5.3Q58.25-2.65 55.6-1.03 52.95 0.6 49.3 0.6ZM49.3-23.05L49.3-23.05Q47.65-23.05 46.3-22.48 44.95-21.9 43.97-20.85 43-19.8 42.45-18.38 41.9-16.95 41.9-15.25L41.9-15.25 41.9-14.9 56.15-14.9 56.15-15.45Q56.15-18.9 54.27-20.98 52.4-23.05 49.3-23.05ZM67.7 0L63.25 0 72.8-13 63.65-25.8 68.35-25.8 74.9-16.2 75.05-16.2 81.85-25.8 86.3-25.8 77.2-13.3 86.5 0 81.8 0 75.1-10.1 74.95-10.1 67.7 0ZM102.49 0L97.49 0Q95.39 0 94.32-1.18 93.24-2.35 93.24-4.25L93.24-4.25 93.24-22.3 88.99-22.3 88.99-25.8 91.39-25.8Q92.69-25.8 93.17-26.33 93.64-26.85 93.64-28.15L93.64-28.15 93.64-32.95 97.24-32.95 97.24-25.8 102.89-25.8 102.89-22.3 97.24-22.3 97.24-3.5 102.49-3.5 102.49 0ZM119.54 0.6L119.54 0.6Q115.29 0.6 112.29-1.03 109.29-2.65 107.19-5.5L107.19-5.5 110.29-8.1Q112.14-5.65 114.39-4.38 116.64-3.1 119.69-3.1L119.69-3.1Q123.44-3.1 125.42-4.9 127.39-6.7 127.39-9.7L127.39-9.7Q127.39-12.2 125.89-13.55 124.39-14.9 120.94-15.7L120.94-15.7 118.09-16.35Q113.29-17.45 110.77-19.68 108.24-21.9 108.24-25.95L108.24-25.95Q108.24-28.25 109.09-30.05 109.94-31.85 111.47-33.05 112.99-34.25 115.12-34.88 117.24-35.5 119.79-35.5L119.79-35.5Q123.74-35.5 126.57-34.05 129.39-32.6 131.34-29.8L131.34-29.8 128.19-27.5Q126.74-29.5 124.69-30.65 122.64-31.8 119.59-31.8L119.59-31.8Q116.24-31.8 114.32-30.38 112.39-28.95 112.39-26.1L112.39-26.1Q112.39-23.6 114.02-22.33 115.64-21.05 118.94-20.3L118.94-20.3 121.79-19.65Q126.94-18.5 129.24-16.15 131.54-13.8 131.54-9.9L131.54-9.9Q131.54-7.5 130.72-5.55 129.89-3.6 128.34-2.25 126.79-0.9 124.57-0.15 122.34 0.6 119.54 0.6ZM138.39 10L138.39-25.8 142.39-25.8 142.39-21.6 142.59-21.6Q143.59-24.05 145.51-25.23 147.44-26.4 150.14-26.4L150.14-26.4Q152.54-26.4 154.49-25.45 156.44-24.5 157.81-22.75 159.19-21 159.91-18.5 160.64-16 160.64-12.9L160.64-12.9Q160.64-9.8 159.91-7.3 159.19-4.8 157.81-3.05 156.44-1.3 154.49-0.35 152.54 0.6 150.14 0.6L150.14 0.6Q144.89 0.6 142.59-4.2L142.59-4.2 142.39-4.2 142.39 10 138.39 10ZM149.04-3L149.04-3Q152.44-3 154.39-5.13 156.34-7.25 156.34-10.7L156.34-10.7 156.34-15.1Q156.34-18.55 154.39-20.68 152.44-22.8 149.04-22.8L149.04-22.8Q147.69-22.8 146.46-22.43 145.24-22.05 144.34-21.4 143.44-20.75 142.91-19.83 142.39-18.9 142.39-17.85L142.39-17.85 142.39-8.25Q142.39-7 142.91-6.03 143.44-5.05 144.34-4.38 145.24-3.7 146.46-3.35 147.69-3 149.04-3ZM188.39 0L186.14 0Q183.89 0 182.91-1.2 181.94-2.4 181.69-4.2L181.69-4.2 181.44-4.2Q180.59-1.8 178.64-0.6 176.69 0.6 173.99 0.6L173.99 0.6Q169.89 0.6 167.61-1.5 165.34-3.6 165.34-7.2L165.34-7.2Q165.34-10.85 168.01-12.8 170.69-14.75 176.34-14.75L176.34-14.75 181.44-14.75 181.44-17.3Q181.44-20.05 179.94-21.5 178.44-22.95 175.34-22.95L175.34-22.95Q172.99-22.95 171.41-21.9 169.84-20.85 168.79-19.1L168.79-19.1 166.39-21.35Q167.44-23.45 169.74-24.93 172.04-26.4 175.54-26.4L175.54-26.4Q180.24-26.4 182.84-24.1 185.44-21.8 185.44-17.7L185.44-17.7 185.44-3.5 188.39-3.5 188.39 0ZM174.64-2.8L174.64-2.8Q176.14-2.8 177.39-3.15 178.64-3.5 179.54-4.15 180.44-4.8 180.94-5.65 181.44-6.5 181.44-7.5L181.44-7.5 181.44-11.75 176.14-11.75Q172.69-11.75 171.11-10.75 169.54-9.75 169.54-7.85L169.54-7.85 169.54-6.8Q169.54-4.9 170.91-3.85 172.29-2.8 174.64-2.8ZM203.68 0.6L203.68 0.6Q200.98 0.6 198.83-0.35 196.68-1.3 195.21-3.05 193.73-4.8 192.96-7.3 192.18-9.8 192.18-12.9L192.18-12.9Q192.18-16 192.96-18.5 193.73-21 195.21-22.75 196.68-24.5 198.83-25.45 200.98-26.4 203.68-26.4L203.68-26.4Q207.53-26.4 209.86-24.73 212.18-23.05 213.33-20.35L213.33-20.35 209.98-18.65Q209.28-20.65 207.68-21.75 206.08-22.85 203.68-22.85L203.68-22.85Q201.88-22.85 200.53-22.28 199.18-21.7 198.28-20.68 197.38-19.65 196.93-18.23 196.48-16.8 196.48-15.1L196.48-15.1 196.48-10.7Q196.48-7.3 198.31-5.13 200.13-2.95 203.68-2.95L203.68-2.95Q208.53-2.95 210.68-7.45L210.68-7.45 213.58-5.5Q212.33-2.7 209.86-1.05 207.38 0.6 203.68 0.6ZM228.63 0.6L228.63 0.6Q225.98 0.6 223.86-0.35 221.73-1.3 220.21-3.08 218.68-4.85 217.86-7.33 217.03-9.8 217.03-12.9L217.03-12.9Q217.03-15.95 217.86-18.45 218.68-20.95 220.21-22.73 221.73-24.5 223.86-25.45 225.98-26.4 228.63-26.4L228.63-26.4Q231.23-26.4 233.28-25.45 235.33-24.5 236.78-22.83 238.23-21.15 239.01-18.85 239.78-16.55 239.78-13.8L239.78-13.8 239.78-11.9 221.23-11.9 221.23-10.7Q221.23-9.05 221.76-7.63 222.28-6.2 223.26-5.15 224.23-4.1 225.66-3.5 227.08-2.9 228.88-2.9L228.88-2.9Q231.33-2.9 233.16-4.05 234.98-5.2 235.98-7.35L235.98-7.35 238.83-5.3Q237.58-2.65 234.93-1.03 232.28 0.6 228.63 0.6ZM228.63-23.05L228.63-23.05Q226.98-23.05 225.63-22.48 224.28-21.9 223.31-20.85 222.33-19.8 221.78-18.38 221.23-16.95 221.23-15.25L221.23-15.25 221.23-14.9 235.48-14.9 235.48-15.45Q235.48-18.9 233.61-20.98 231.73-23.05 228.63-23.05Z" opacity="1" transform="matrix(1,0,0,1,0,0)" fill="#000000" class="wordmark-text-0" data-fill-palette-color="primary" id="text-0"></path></svg></g></svg></g></svg></g></svg></g></svg></g></svg></g></svg></g><g><path d="M245.816 0c68.262 0 123.6 55.338 123.6 123.6 0 68.262-55.338 123.6-123.6 123.6-58.192 0-106.992-40.215-120.124-94.369l2.196 0c13.085 52.965 60.92 92.237 117.928 92.236 67.085 0 121.467-54.383 121.467-121.467 0-67.085-54.383-121.467-121.467-121.467-57.007 0-104.842 39.272-117.928 92.236l-2.196 0c13.132-54.154 61.931-94.369 120.124-94.369z" fill="#000000" stroke="transparent" data-fill-palette-color="tertiary"></path></g></svg></g><defs></defs></svg><rect width="395.52" height="247.2" fill="none" stroke="none" visibility="hidden"></rect></g></svg></g></svg>